<svg width="60" height="72" viewBox="0 0 60 72" fill="none" xmlns="http://www.w3.org/2000/svg">
<path fill-rule="evenodd" clip-rule="evenodd" d="M58 14H2V52C2 61.9411 10.0589 70 20 70H40C49.9411 70 58 61.9411 58 52V14ZM2 12H58C59.1046 12 60 12.8954 60 14V52C60 63.0457 51.0457 72 40 72H20C8.9543 72 0 63.0457 0 52V14C0 12.8954 0.895431 12 2 12Z" fill="#E0E0E0"/>
<path d="M19 52H21V60H19V52Z" fill="#E0E0E0"/>
<path d="M25 52H27V60H25V52Z" fill="#E0E0E0"/>
<path d="M31 52H33V60H31V52Z" fill="#E0E0E0"/>
<path d="M38 52H40V60H38V52Z" fill="#E0E0E0"/>
<path fill-rule="evenodd" clip-rule="evenodd" d="M15.4321 41.3658L9.21691 35.1427C8.4373 34.3549 8 33.2914 8 32.1831C8 31.0748 8.4373 30.0112 9.21691 29.2235C10.0026 28.44 11.0669 28 12.1765 28C13.2861 28 14.3504 28.44 15.1361 29.2235L16 30.0873L16.8639 29.2235C17.6496 28.44 18.7139 28 19.8235 28C20.9331 28 21.9974 28.44 22.7831 29.2235C23.5627 30.0112 24 31.0748 24 32.1831C24 33.2914 23.5627 34.3549 22.7831 35.1427L16.5679 41.3658C16.4932 41.44 16.4045 41.4986 16.3071 41.5384C16.2096 41.5782 16.1053 41.5984 16 41.5978C15.8947 41.5984 15.7904 41.5782 15.6929 41.5384C15.5955 41.4986 15.5068 41.44 15.4321 41.3658ZM21.3662 30.635C20.9559 30.2283 20.4014 30 19.8235 30C19.2438 30 18.6877 30.2297 18.2769 30.6388C18.2767 30.6391 18.2764 30.6394 18.2761 30.6397L16 32.9158L13.7239 30.6397C13.7236 30.6394 13.7233 30.6391 13.7231 30.6388C13.3123 30.2297 12.7562 30 12.1765 30C11.5986 30 11.0441 30.2283 10.6338 30.635C10.2277 31.0478 10 31.6038 10 32.1831C10 32.7633 10.2284 33.3201 10.6358 33.7331L16 39.1042L21.3642 33.7331C21.7716 33.3201 22 32.7633 22 32.1831C22 31.6038 21.7723 31.0478 21.3662 30.635Z" fill="#E0E0E0"/>
<path fill-rule="evenodd" clip-rule="evenodd" d="M43.4321 41.3658L37.2169 35.1427C36.4373 34.3549 36 33.2914 36 32.1831C36 31.0748 36.4373 30.0112 37.2169 29.2235C38.0026 28.44 39.0669 28 40.1765 28C41.2861 28 42.3504 28.44 43.1361 29.2235L44 30.0873L44.8639 29.2235C45.6496 28.44 46.7139 28 47.8235 28C48.9331 28 49.9974 28.44 50.7831 29.2235C51.5627 30.0112 52 31.0748 52 32.1831C52 33.2914 51.5627 34.3549 50.7831 35.1427L44.5679 41.3658C44.4932 41.44 44.4045 41.4986 44.3071 41.5384C44.2096 41.5782 44.1053 41.5984 44 41.5978C43.8947 41.5984 43.7904 41.5782 43.6929 41.5384C43.5955 41.4986 43.5068 41.44 43.4321 41.3658ZM49.3662 30.635C48.9559 30.2283 48.4014 30 47.8235 30C47.2438 30 46.6877 30.2297 46.2769 30.6388C46.2767 30.6391 46.2764 30.6394 46.2761 30.6397L44 32.9158L41.7239 30.6397C41.7236 30.6394 41.7233 30.6391 41.7231 30.6388C41.3123 30.2297 40.7562 30 40.1765 30C39.5986 30 39.0441 30.2283 38.6338 30.635C38.2277 31.0478 38 31.6038 38 32.1831C38 32.7633 38.2284 33.3201 38.6358 33.7331L44 39.1042L49.3642 33.7331C49.7716 33.3201 50 32.7633 50 32.1831C50 31.6038 49.7723 31.0478 49.3662 30.635Z" fill="#E0E0E0"/>
<mask id="mask0_13_2517" style="mask-type:alpha" maskUnits="userSpaceOnUse" x="14" y="0" width="31" height="10">
<path d="M14.5 0H44.5V10H14.5V0Z" fill="#9C6767"/>
</mask>
<g mask="url(#mask0_13_2517)">
<path fill-rule="evenodd" clip-rule="evenodd" d="M29.8087 24.4444C35.9452 24.4444 40.9198 19.4698 40.9198 13.3333C40.9198 7.19684 35.9452 2.22222 29.8087 2.22222C23.6722 2.22222 18.6976 7.19684 18.6976 13.3333C18.6976 19.4698 23.6722 24.4444 29.8087 24.4444ZM29.8087 26.6667C37.1725 26.6667 43.142 20.6971 43.142 13.3333C43.142 5.96954 37.1725 0 29.8087 0C22.4449 0 16.4753 5.96954 16.4753 13.3333C16.4753 20.6971 22.4449 26.6667 29.8087 26.6667Z" fill="#E0E0E0"/>
</g>
</svg>
