<svg width="60" height="72" viewBox="0 0 60 72" fill="none" xmlns="http://www.w3.org/2000/svg">
<path fill-rule="evenodd" clip-rule="evenodd" d="M2 70H58L58 32C58 22.0589 49.9411 14 40 14L20 14C10.0589 14 2 22.0589 2 32L2 70ZM58 72H2C0.895432 72 0 71.1046 0 70L0 32C0 20.9543 8.95431 12 20 12L40 12C51.0457 12 60 20.9543 60 32L60 70C60 71.1046 59.1046 72 58 72Z" fill="#E0E0E0"/>
<path fill-rule="evenodd" clip-rule="evenodd" d="M29.7783 22.0775C35.3012 22.0775 39.7783 17.5845 39.7783 12.0423C39.7783 6.49996 35.3012 2.00704 29.7783 2.00704C24.2555 2.00704 19.7783 6.49996 19.7783 12.0423C19.7783 17.5845 24.2555 22.0775 29.7783 22.0775ZM29.7783 24.0845C36.4057 24.0845 41.7783 18.693 41.7783 12.0423C41.7783 5.3915 36.4057 0 29.7783 0C23.1509 0 17.7783 5.3915 17.7783 12.0423C17.7783 18.693 23.1509 24.0845 29.7783 24.0845Z" fill="#E0E0E0"/>
<path d="M21 50.25H39L37.5 59.25H22.5L21 50.25Z" fill="#E0E0E0"/>
<circle cx="15.75" cy="34.5" r="3.75" fill="#E0E0E0"/>
<circle cx="45" cy="34.5" r="3.75" fill="#E0E0E0"/>
</svg>
