<svg width="60" height="72" viewBox="0 0 60 72" fill="none" xmlns="http://www.w3.org/2000/svg">
<path fill-rule="evenodd" clip-rule="evenodd" d="M42 13.9992H18C9.16301 13.9992 1.9992 21.163 1.9992 30V54C1.9992 62.837 9.16301 70.0008 18 70.0008H42C50.837 70.0008 58.0008 62.837 58.0008 54V30C58.0008 21.163 50.837 13.9992 42 13.9992ZM18 12H42C51.9411 12 60 20.0589 60 30V54C60 63.9411 51.9411 72 42 72H18C8.05888 72 0 63.9411 0 54V30C0 20.0589 8.05888 12 18 12Z" fill="#E0E0E0"/>
<path d="M29.45 0.213356C29.7538 -0.0711185 30.2462 -0.0711187 30.55 0.213356L41 10H19L29.45 0.213356Z" fill="#E0E0E0"/>
<path d="M25.0372 37.4715C25.4353 36.7821 25.2254 35.9018 24.5591 35.4661L11.9856 27.2445C11.2648 26.7732 10.2962 27.0042 9.86564 27.7499L8.4513 30.1996C8.02074 30.9454 8.30506 31.8997 9.07354 32.2883L22.4804 39.0665C23.1909 39.4257 24.0582 39.1673 24.4562 38.4778L25.0372 37.4715Z" fill="#E0E0E0"/>
<path d="M33.4561 37.4715C33.0581 36.7821 33.268 35.9018 33.9342 35.4661L46.5078 27.2445C47.2285 26.7732 48.1972 27.0042 48.6277 27.7499L50.0421 30.1996C50.4726 30.9454 50.1883 31.8997 49.4198 32.2883L36.0129 39.0665C35.3025 39.4257 34.4352 39.1673 34.0371 38.4778L33.4561 37.4715Z" fill="#E0E0E0"/>
<path fill-rule="evenodd" clip-rule="evenodd" d="M39.8832 51.9483C40.1876 52.2292 40.2066 52.7037 39.9256 53.0081L35.9551 57.3094C35.3773 57.9355 34.3947 57.9551 33.7923 57.3527L30.3746 53.935L26.9353 57.3743C26.3496 57.9601 25.3998 57.9601 24.814 57.3743L29.314 52.8744C29.8998 52.2886 30.8495 52.2886 31.4353 52.8744L34.8529 56.292L38.8234 51.9907C39.1044 51.6863 39.5789 51.6673 39.8832 51.9483ZM20.4694 51.9691C20.7623 51.6762 21.2372 51.6762 21.5301 51.9691L25.8747 56.3137L24.814 57.3743L20.4694 53.0297C20.1765 52.7368 20.1765 52.262 20.4694 51.9691Z" fill="#E0E0E0"/>
</svg>
